<svg width="280" height="280" viewBox="0 0 280 280" fill="none" xmlns="http://www.w3.org/2000/svg">
<g clip-path="url(#clip0_4_7)">
<rect width="280" height="280" fill="white"/>
<path d="M0 0H280V280H0V0Z" fill="#111118"/>
<rect x="29" y="29" width="38.4097" height="221.923" fill="#D9D9D9"/>
<rect x="120.33" y="29" width="38.4097" height="221.923" fill="#D9D9D9"/>
<rect x="29" y="67.4097" width="38.4097" height="220.216" transform="rotate(-90 29 67.4097)" fill="#D9D9D9"/>
<rect x="120.33" y="250.923" width="38.4097" height="129.739" transform="rotate(-90 120.33 250.923)" fill="#D9D9D9"/>
<rect x="211.66" y="121.183" width="38.4097" height="129.739" fill="#D9D9D9"/>
<rect x="249.216" y="84.4807" width="38.4097" height="55.4807" transform="rotate(-180 249.216 84.4807)" fill="#D9D9D9"/>
<rect x="29" y="159.593" width="38.4097" height="58.0413" transform="rotate(-90 29 159.593)" fill="#D9D9D9"/>
<path d="M183.492 159.593V121.183H249.216V159.593H183.492Z" fill="#D9D9D9"/>
<rect x="89.602" y="121.183" width="2.56065" height="38.4097" fill="#D9D9D9"/>
<rect x="89.602" y="159.593" width="2.56065" height="5.97484" transform="rotate(-90 89.602 159.593)" fill="#D9D9D9"/>
<rect x="98.1375" y="121.183" width="2.56065" height="38.4097" fill="#D9D9D9"/>
<rect x="98.1375" y="159.593" width="2.56065" height="8.53549" transform="rotate(-90 98.1375 159.593)" fill="#D9D9D9"/>
<rect x="106.673" y="159.593" width="2.56065" height="38.4097" transform="rotate(-180 106.673 159.593)" fill="#D9D9D9"/>
<rect x="106.673" y="121.183" width="2.56065" height="8.53549" transform="rotate(90 106.673 121.183)" fill="#D9D9D9"/>
<rect x="172.396" y="121.183" width="2.56065" height="38.4097" fill="#D9D9D9"/>
<rect x="172.396" y="159.593" width="2.56065" height="8.53549" transform="rotate(-90 172.396 159.593)" fill="#D9D9D9"/>
<rect x="180.932" y="159.593" width="2.56065" height="38.4097" transform="rotate(-180 180.932 159.593)" fill="#D9D9D9"/>
<rect x="180.932" y="121.183" width="2.56065" height="8.53549" transform="rotate(90 180.932 121.183)" fill="#D9D9D9"/>
<rect x="161.3" y="121.183" width="2.56065" height="38.4097" fill="#D9D9D9"/>
<rect x="161.3" y="140.815" width="2.56065" height="8.53549" transform="rotate(-90 161.3 140.815)" fill="#D9D9D9"/>
<rect x="169.836" y="140.815" width="2.56065" height="19.6316" transform="rotate(-180 169.836 140.815)" fill="#D9D9D9"/>
<rect x="169.835" y="159.593" width="2.56065" height="15.4578" transform="rotate(-180 169.835 159.593)" fill="#D9D9D9"/>
<rect x="162.154" y="140.065" width="2.56065" height="8.30503" transform="rotate(-45 162.154 140.065)" fill="#D9D9D9"/>
<rect x="169.836" y="121.183" width="2.56065" height="8.53549" transform="rotate(90 169.836 121.183)" fill="#D9D9D9"/>
<rect x="109.234" y="121.183" width="2.56065" height="38.4097" fill="#D9D9D9"/>
<rect x="115.208" y="121.183" width="2.56065" height="38.4097" fill="#D9D9D9"/>
<rect x="109.234" y="141.668" width="2.56065" height="8.53549" transform="rotate(-90 109.234 141.668)" fill="#D9D9D9"/>
</g>
<defs>
<clipPath id="clip0_4_7">
<rect width="280" height="280" fill="white"/>
</clipPath>
</defs>
</svg>
