<svg width="280" height="280" viewBox="0 0 280 280" fill="none" xmlns="http://www.w3.org/2000/svg">
<g clip-path="url(#clip0_4_7)">
<rect width="280" height="280" fill="white"/>
<path d="M0 0H280V280H0V0Z" fill="#111118"/>
<rect x="10.5" y="10" width="45" height="260" fill="#D9D9D9"/>
<rect x="117.5" y="10" width="45" height="260" fill="#D9D9D9"/>
<rect x="10.5" y="55" width="45" height="258" transform="rotate(-90 10.5 55)" fill="#D9D9D9"/>
<rect x="117.5" y="270" width="45" height="152" transform="rotate(-90 117.5 270)" fill="#D9D9D9"/>
<rect x="224.5" y="118" width="45" height="152" fill="#D9D9D9"/>
<rect x="268.5" y="75" width="45" height="65" transform="rotate(-180 268.5 75)" fill="#D9D9D9"/>
<rect x="10.5" y="163" width="45" height="68" transform="rotate(-90 10.5 163)" fill="#D9D9D9"/>
<path d="M191.5 163V118H268.5V163H191.5Z" fill="#D9D9D9"/>
<rect x="81.5" y="118" width="3" height="45" fill="#D9D9D9"/>
<rect x="81.5" y="163" width="3" height="7" transform="rotate(-90 81.5 163)" fill="#D9D9D9"/>
<rect x="91.5" y="118" width="3" height="45" fill="#D9D9D9"/>
<rect x="91.5" y="163" width="3" height="10" transform="rotate(-90 91.5 163)" fill="#D9D9D9"/>
<rect x="101.5" y="163" width="3" height="45" transform="rotate(-180 101.5 163)" fill="#D9D9D9"/>
<rect x="101.5" y="118" width="3" height="10" transform="rotate(90 101.5 118)" fill="#D9D9D9"/>
<rect x="178.5" y="118" width="3" height="45" fill="#D9D9D9"/>
<rect x="178.5" y="163" width="3" height="10" transform="rotate(-90 178.5 163)" fill="#D9D9D9"/>
<rect x="188.5" y="163" width="3" height="45" transform="rotate(-180 188.5 163)" fill="#D9D9D9"/>
<rect x="188.5" y="118" width="3" height="10" transform="rotate(90 188.5 118)" fill="#D9D9D9"/>
<rect x="165.5" y="118" width="3" height="45" fill="#D9D9D9"/>
<rect x="165.5" y="141" width="3" height="10" transform="rotate(-90 165.5 141)" fill="#D9D9D9"/>
<rect x="175.5" y="141" width="3" height="23" transform="rotate(-180 175.5 141)" fill="#D9D9D9"/>
<rect x="175.5" y="163" width="3" height="18.11" transform="rotate(-180 175.5 163)" fill="#D9D9D9"/>
<rect x="166.5" y="140.121" width="3" height="9.73" transform="rotate(-45 166.5 140.121)" fill="#D9D9D9"/>
<rect x="175.5" y="118" width="3" height="10" transform="rotate(90 175.5 118)" fill="#D9D9D9"/>
<rect x="104.5" y="118" width="3" height="45" fill="#D9D9D9"/>
<rect x="111.5" y="118" width="3" height="45" fill="#D9D9D9"/>
<rect x="104.5" y="142" width="3" height="10" transform="rotate(-90 104.5 142)" fill="#D9D9D9"/>
</g>
<defs>
<clipPath id="clip0_4_7">
<rect width="280" height="280" fill="white"/>
</clipPath>
</defs>
</svg>
