<?xml version="1.0" encoding="UTF-8"?>
<!-- Generated by Pixelmator Pro 3.6.17 -->
<svg width="954" height="337" viewBox="0 0 954 337" xmlns="http://www.w3.org/2000/svg">
    <g id="PoweredByEchoFeed02">
        <g id="Background">
            <path id="Path" fill="#3f3f46" stroke="none" d="M 40.053635 1.284088 L 913.94635 1.284088 C 935.515137 1.284088 953 18.769012 953 40.337738 L 953 297.594086 C 953 319.162811 935.515137 336.647736 913.94635 336.647736 L 40.053635 336.647736 C 18.484909 336.647736 1 319.162811 1 297.594086 L 1 40.337738 C 1 18.769012 18.484909 1.284088 40.053635 1.284088 Z"/>
            <path id="path1" fill="#ffffff" stroke="none" d="M 931.363647 40.337738 L 931.363647 297.594086 C 931.363647 307.22226 923.574524 315.011353 913.94635 315.011353 L 40.053642 315.011353 C 30.425468 315.011353 22.636364 307.22226 22.636364 297.594086 L 22.636364 40.337738 C 22.636364 30.709534 30.425468 22.920441 40.053642 22.920441 L 913.94635 22.920441 C 923.574524 22.920441 931.363647 30.709534 931.363647 40.337738 Z"/>
        </g>
        <g id="Text">
            <path id="path2" fill="#3f3f46" stroke="none" d="M 354.105438 117.579544 L 341.88092 117.579544 L 341.88092 145.057739 L 330.73819 145.057739 L 330.73819 77.335907 L 354.105438 77.335907 C 370.224548 77.335907 378.013611 86.531372 378.013611 97.457718 C 378.013611 107.085892 371.739105 117.471359 354.105438 117.471359 Z M 354.105438 108.492264 C 362.759979 108.492264 366.654541 104.273193 366.654541 97.457718 C 366.654541 90.642273 362.759979 86.315002 354.105438 86.315002 L 341.88092 86.315002 L 341.88092 108.384094 L 354.105438 108.384094 Z M 411.982758 145.923172 C 396.729095 145.923172 385.045441 134.996826 385.045441 118.120453 C 385.045441 101.244095 397.161804 90.425903 412.415436 90.425903 C 427.669067 90.425903 439.785461 101.244095 439.785461 118.120453 C 439.785461 134.996826 427.344543 145.923172 411.982758 145.923172 Z M 411.982758 136.294998 C 420.204559 136.294998 428.426331 130.345001 428.426331 118.228653 C 428.426331 106.112259 420.529083 100.162262 412.199066 100.162262 C 403.86911 100.162262 396.296387 106.004089 396.296387 118.228653 C 396.296387 130.453171 403.544525 136.294998 411.874542 136.294998 Z M 444.437286 91.399551 L 455.688171 91.399551 L 466.939087 134.564087 L 478.298157 91.399551 L 489.873627 91.399551 L 500.800018 134.347717 L 511.942719 91.399551 L 522.86908 91.399551 L 506.209106 145.057739 L 494.525452 145.057739 L 483.707275 105.463196 L 472.889069 145.057739 L 461.205475 145.057739 L 444.437286 91.399551 Z M 554.133667 145.923172 C 538.77179 145.923172 527.304565 134.996826 527.304565 118.120453 C 527.304565 101.244095 538.230896 90.425903 554.133667 90.425903 C 570.036377 90.425903 580.205444 101.02774 580.205444 116.822281 C 580.205444 118.661362 580.205444 120.392273 579.772705 122.231369 L 538.77179 122.231369 C 539.529053 131.10228 545.911804 136.403183 554.025452 136.403183 C 560.840881 136.403183 564.627258 133.049545 566.682739 128.938629 L 578.690918 128.938629 C 575.661804 138.242264 567.223633 145.815002 554.025452 145.815002 Z M 538.988159 113.360458 L 568.738159 113.360458 C 568.52179 105.030457 562.030945 99.837738 553.700928 99.837738 C 546.236389 99.837738 540.178162 104.922272 538.988159 113.360458 Z M 602.274536 145.057739 L 591.131836 145.057739 L 591.131836 91.399551 L 602.274536 91.399551 L 602.274536 99.188629 C 605.411804 93.779541 610.712708 90.534088 618.393616 90.534088 L 618.393616 102.001373 L 615.580933 102.001373 C 607.35907 102.001373 602.382751 105.463196 602.382751 116.822281 L 602.382751 145.057739 Z M 651.605469 145.923172 C 636.243652 145.923172 624.776367 134.996826 624.776367 118.120453 C 624.776367 101.244095 635.702698 90.425903 651.605469 90.425903 C 667.508179 90.425903 677.677246 101.02774 677.677246 116.822281 C 677.677246 118.661362 677.677246 120.392273 677.244507 122.231369 L 636.243652 122.231369 C 637.000916 131.10228 643.383667 136.403183 651.497314 136.403183 C 658.312683 136.403183 662.099121 133.049545 664.154541 128.938629 L 676.16272 128.938629 C 673.133667 138.242264 664.695435 145.815002 651.497314 145.815002 Z M 636.460022 113.360458 L 666.210022 113.360458 C 665.993652 105.030457 659.502686 99.837738 651.172729 99.837738 C 643.708191 99.837738 637.649963 104.922272 636.460022 113.360458 Z M 710.348206 90.534088 C 717.380005 90.534088 724.736389 93.887741 728.847229 98.86409 L 728.847229 73.008636 L 740.098206 73.008636 L 740.098206 145.057739 L 728.847229 145.057739 L 728.847229 136.944107 C 725.385437 141.812271 719.002747 145.923172 710.23999 145.923172 C 696.068176 145.923172 684.925476 134.564087 684.925476 118.012283 C 684.925476 101.460464 696.176392 90.534088 710.348206 90.534088 Z M 712.619995 100.162262 C 704.398132 100.162262 696.3927 106.436829 696.3927 118.012283 C 696.3927 129.587738 704.398132 136.294998 712.619995 136.294998 C 720.841858 136.294998 728.847229 129.804108 728.847229 118.228653 C 728.847229 106.653183 720.950012 100.162262 712.619995 100.162262 Z M 809.767273 90.534088 C 823.939087 90.534088 834.973572 101.460464 834.973572 118.012283 C 834.973572 134.564087 823.830872 145.923172 809.767273 145.923172 C 800.896362 145.923172 794.621826 141.920456 791.051819 137.268631 L 791.051819 145.057739 L 779.909119 145.057739 L 779.909119 73.008636 L 791.051819 73.008636 L 791.051819 99.404999 C 794.513611 94.536804 801.329102 90.534088 809.767273 90.534088 Z M 807.279053 100.162262 C 798.949097 100.162262 791.051819 106.653183 791.051819 118.228653 C 791.051819 129.804108 799.057251 136.294998 807.279053 136.294998 C 815.500916 136.294998 823.614563 129.587738 823.614563 118.012283 C 823.614563 106.436829 815.609131 100.162262 807.279053 100.162262 Z M 882.790039 91.399551 L 894.257263 91.399551 L 861.369995 170.264084 L 849.90271 170.264084 L 860.829102 144.192261 L 839.733643 91.399551 L 852.066345 91.399551 L 867.211792 132.292282 L 882.898132 91.399551 Z M 418.581787 205.315002 L 392.29361 205.315002 L 392.29361 225.220459 L 415.660919 225.220459 L 415.660919 234.307739 L 392.29361 234.307739 L 392.29361 255.078629 L 418.581787 255.078629 L 418.581787 264.165894 L 381.150909 264.165894 L 381.150909 196.335922 L 418.581787 196.335922 L 418.581787 205.423187 Z M 454.822723 209.534088 C 468.020874 209.534088 476.567261 216.024994 479.596375 227.384094 L 467.588196 227.384094 C 465.749084 222.191376 461.421844 218.945923 454.822723 218.945923 C 445.843628 218.945923 439.893646 225.544998 439.893646 237.228638 C 439.893646 248.912262 445.843628 255.619537 454.822723 255.619537 C 461.421844 255.619537 465.532715 252.698639 467.588196 247.181366 L 479.596375 247.181366 C 476.567261 257.675018 468.020874 265.031372 454.822723 265.031372 C 439.460907 265.031372 428.534546 254.105011 428.534546 237.228638 C 428.534546 220.352264 439.460907 209.534088 454.822723 209.534088 Z M 490.63089 192.008621 L 501.773651 192.008621 L 501.773651 216.674088 C 505.451843 212.238647 511.509979 209.534088 518.433655 209.534088 C 530.441833 209.534088 539.745422 217.431366 539.745422 232.468643 L 539.745422 264.165894 L 528.710876 264.165894 L 528.710876 234.199554 C 528.710876 224.355011 523.301819 219.270447 515.296387 219.270447 C 507.290894 219.270447 501.773651 224.355011 501.773651 234.199554 L 501.773651 264.165894 L 490.63089 264.165894 L 490.63089 192.116806 Z M 577.068176 264.923187 C 561.814575 264.923187 550.13092 253.996826 550.13092 237.120453 C 550.13092 220.24408 562.247314 209.425903 577.500916 209.425903 C 592.754578 209.425903 604.870911 220.24408 604.870911 237.120453 C 604.870911 253.996826 592.429993 264.923187 577.068176 264.923187 Z M 577.068176 255.294998 C 585.289978 255.294998 593.511841 249.345001 593.511841 237.228638 C 593.511841 225.112274 585.614563 219.162262 577.284546 219.162262 C 568.954529 219.162262 561.381836 225.004089 561.381836 237.228638 C 561.381836 249.453186 568.630005 255.294998 576.960022 255.294998 Z M 615.905457 196.335922 L 655.71637 196.335922 L 655.71637 205.423187 L 626.940002 205.423187 L 626.940002 225.436813 L 649.333618 225.436813 L 649.333618 234.524078 L 626.940002 234.524078 L 626.940002 264.165894 L 615.797302 264.165894 L 615.797302 196.444107 Z M 689.144531 264.923187 C 673.782715 264.923187 662.315491 253.996826 662.315491 237.120453 C 662.315491 220.24408 673.241821 209.425903 689.144531 209.425903 C 705.047302 209.425903 715.216309 220.02771 715.216309 235.822266 C 715.216309 237.661377 715.216309 239.392273 714.783691 241.231369 L 673.782715 241.231369 C 674.539978 250.102264 680.922729 255.403183 689.036377 255.403183 C 695.851868 255.403183 699.638184 252.049545 701.693604 247.938629 L 713.701782 247.938629 C 710.672729 257.242279 702.234558 264.815002 689.036377 264.815002 Z M 673.89093 232.360458 L 703.640869 232.360458 C 703.424561 224.030457 696.933655 218.837738 688.603638 218.837738 C 681.139099 218.837738 675.080933 223.922272 673.89093 232.360458 Z M 749.185486 264.923187 C 733.823608 264.923187 722.356384 253.996826 722.356384 237.120453 C 722.356384 220.24408 733.282776 209.425903 749.185486 209.425903 C 765.088135 209.425903 775.257263 220.02771 775.257263 235.822266 C 775.257263 237.661377 775.257263 239.392273 774.824524 241.231369 L 733.823608 241.231369 C 734.580872 250.102264 740.963623 255.403183 749.077271 255.403183 C 755.8927 255.403183 759.679077 252.049545 761.734558 247.938629 L 773.742737 247.938629 C 770.713623 257.242279 762.275513 264.815002 749.077271 264.815002 Z M 734.040039 232.360458 L 763.790039 232.360458 C 763.573608 224.030457 757.082703 218.837738 748.752747 218.837738 C 741.288208 218.837738 735.230042 223.922272 734.040039 232.360458 Z M 807.928162 209.534088 C 814.959961 209.534088 822.316345 212.887726 826.427307 217.864105 L 826.427307 192.008621 L 837.678162 192.008621 L 837.678162 264.057739 L 826.427307 264.057739 L 826.427307 255.944092 C 822.965515 260.812256 816.582703 264.923187 807.820007 264.923187 C 793.648132 264.923187 782.505432 253.564087 782.505432 237.012283 C 782.505432 220.460449 793.756348 209.534088 807.928162 209.534088 Z M 810.200012 219.162262 C 801.97821 219.162262 793.972778 225.436813 793.972778 237.012283 C 793.972778 248.587738 801.97821 255.294998 810.200012 255.294998 C 818.421814 255.294998 826.427307 248.804077 826.427307 237.228638 C 826.427307 225.653183 818.529968 219.162262 810.200012 219.162262 Z"/>
        </g>
        <g id="logo-copy">
            <path id="ef-logo-r-outer-segment" fill="#f26522" fill-rule="evenodd" stroke="none" d="M 261.970093 226.215744 C 268.291382 232.518646 270.017517 234.13913 270.296173 234.032227 C 270.489502 233.958008 270.693634 233.829025 270.749817 233.745544 C 270.805939 233.662048 271.575531 232.485931 272.459991 231.131958 C 273.344452 229.777954 274.78299 227.378937 275.656738 225.800812 C 276.530457 224.222687 277.874542 221.618866 278.643494 220.014526 C 279.412506 218.410217 280.660034 215.550171 281.415863 213.658905 C 282.171661 211.767639 283.234283 208.836105 283.777222 207.144363 C 284.32019 205.452637 285.11676 202.668381 285.547363 200.957092 C 285.977997 199.245804 286.633881 196.192856 287.004913 194.172745 C 287.375916 192.152649 287.874908 188.739822 288.11377 186.588669 C 288.481628 183.276108 288.548096 181.620911 288.548096 175.774048 C 288.548096 169.92717 288.481628 168.271973 288.11377 164.959427 C 287.874908 162.808273 287.375916 159.395447 287.004913 157.375336 C 286.633881 155.35524 285.977997 152.302292 285.547363 150.591003 C 285.11676 148.879715 284.32019 146.095459 283.777222 144.403717 C 283.234283 142.71199 282.171265 139.780457 281.414948 137.889191 C 280.658661 135.997925 279.445465 133.205185 278.718933 131.683136 C 277.992462 130.161057 276.639099 127.535797 275.711487 125.849228 C 274.783844 124.162628 273.267212 121.645096 272.341156 120.254669 C 271.015381 118.264069 270.564606 117.726639 270.220764 117.726639 C 269.905151 117.726639 267.571167 119.936417 261.799591 125.699646 C 254.416763 133.071823 253.820389 133.716629 253.886063 134.256058 C 253.92514 134.57692 254.413834 135.627029 254.972092 136.589615 C 255.530365 137.5522 256.409332 139.171127 256.925385 140.187195 C 257.441437 141.203262 258.395935 143.303482 259.046448 144.854324 C 259.696991 146.405167 260.626434 148.867325 261.111877 150.325775 C 261.597351 151.78421 262.352417 154.365707 262.789825 156.062454 C 263.227234 157.759171 263.799591 160.41008 264.061768 161.953384 C 264.323914 163.496658 264.668182 166.114105 264.826813 167.769897 C 264.996094 169.536652 265.115234 172.843506 265.115234 175.774048 C 265.115234 178.704575 264.996094 182.011429 264.826813 183.778198 C 264.668182 185.43399 264.323914 188.051437 264.061768 189.594711 C 263.799591 191.138 263.224274 193.800812 262.783264 195.512115 C 262.342255 197.223404 261.550507 199.902283 261.023834 201.465179 C 260.497162 203.028107 259.531494 205.565842 258.877899 207.10463 C 258.224335 208.643417 257.208588 210.821259 256.620728 211.94429 C 256.032867 213.067322 255.109482 214.754913 254.568771 215.694519 C 253.738602 217.137146 253.617538 217.46991 253.790619 217.833618 C 253.90332 218.070526 257.584106 221.842468 261.970093 226.215744 Z"/>
            <path id="ef-logo-r-inner-segment" fill="#f26522" fill-rule="evenodd" stroke="none" d="M 233.805511 198.048096 C 238.356491 202.59436 240.644714 204.74913 240.921631 204.74913 C 241.249603 204.74913 241.524109 204.338348 242.318512 202.658646 C 242.862305 201.508881 243.651566 199.693085 244.072418 198.623535 C 244.493271 197.55397 245.109756 195.847549 245.442352 194.831482 C 245.774948 193.815414 246.263428 192.108994 246.527878 191.039444 C 246.792313 189.969894 247.184998 188.167877 247.400497 187.034943 C 247.616013 185.902008 247.905243 183.976837 248.043228 182.756744 C 248.181213 181.536667 248.294113 178.39444 248.294113 175.774048 C 248.294113 173.153656 248.181213 170.011429 248.043228 168.791351 C 247.905243 167.571243 247.61618 165.646072 247.400879 164.513153 C 247.185562 163.380219 246.756363 161.44693 246.447052 160.216949 C 246.137756 158.986984 245.536926 156.974258 245.111847 155.744293 C 244.686768 154.514313 243.892624 152.457855 243.347092 151.174393 C 242.801559 149.89093 242.113281 148.40329 241.817566 147.868515 C 241.445969 147.196487 241.167252 146.906143 240.915161 146.928406 C 240.714569 146.946106 237.455231 150.052658 233.672241 153.831863 C 229.889236 157.611038 226.743576 160.899719 226.681824 161.140015 C 226.6194 161.383026 226.872467 162.635376 227.252045 163.961899 C 227.627396 165.273651 228.096222 167.352264 228.293884 168.581055 C 228.57605 170.335098 228.65329 171.887451 228.65329 175.804596 C 228.65329 180.042725 228.58931 181.170029 228.22847 183.291443 C 227.994812 184.66507 227.486481 186.833145 227.098862 188.109406 C 226.410309 190.376434 226.402191 190.44046 226.745819 190.888474 C 226.939285 191.140671 230.11615 194.362488 233.805511 198.048096 Z"/>
            <path id="ef-logo-l-inner-segment" fill="#3f3f46" fill-rule="evenodd" stroke="none" opacity="0.649211" d="M 177.995499 278.437714 C 179.11853 278.535187 183.143921 278.584503 186.940826 278.547302 C 192.397751 278.493835 194.537003 278.395447 197.150177 278.07785 C 198.968399 277.856873 201.94371 277.410645 203.761932 277.086212 C 205.58017 276.76181 208.642975 276.107574 210.568161 275.632294 C 212.493362 275.157074 215.452637 274.323151 217.144379 273.779114 C 218.836105 273.235138 221.767639 272.171661 223.658905 271.415863 C 225.550171 270.660065 228.410202 269.412476 230.014526 268.643494 C 231.618866 267.874512 234.244125 266.519043 235.84845 265.631348 C 237.452774 264.743652 240.165527 263.097992 241.876816 261.974304 C 243.588104 260.850616 246.125839 259.075195 247.516266 258.028931 C 248.906677 256.982635 250.744354 255.541504 251.600006 254.826401 C 252.455643 254.111282 254.271454 252.514465 255.635117 251.277893 C 257.315765 249.753891 258.114532 248.897552 258.114532 248.619781 C 258.114532 248.339355 255.629608 245.725616 250.244812 240.342041 C 245.3228 235.421143 242.234604 232.474091 242.000015 232.474091 C 241.793762 232.474091 240.952164 233.083527 240.129852 233.8284 C 239.307526 234.573273 237.614029 236.038666 236.366501 237.084839 C 235.118973 238.131042 233.134338 239.674759 231.956207 240.51535 C 230.778076 241.355942 228.677856 242.739105 227.289078 243.58905 C 225.900299 244.438965 223.75766 245.668396 222.527679 246.321075 C 221.297714 246.97377 218.947525 248.082535 217.305084 248.785004 C 215.662659 249.487457 213.037399 250.494019 211.471176 251.021805 C 209.904968 251.549576 207.223404 252.342239 205.512115 252.783264 C 203.800827 253.224274 201.138016 253.799606 199.594711 254.061768 C 198.051437 254.323914 195.43399 254.668182 193.778198 254.826813 C 192.011444 254.996078 188.70459 255.115234 185.774048 255.115234 C 182.843521 255.115234 179.536667 254.996078 177.769897 254.826813 C 176.114105 254.668182 173.496658 254.323914 171.953384 254.061768 C 170.410095 253.799606 167.747284 253.224274 166.03598 252.783264 C 164.324692 252.342239 161.643127 251.549576 160.076935 251.021805 C 158.510696 250.494019 155.885437 249.487457 154.243011 248.785004 C 152.600571 248.082535 150.250381 246.97377 149.020416 246.321075 C 147.790436 245.668396 145.647812 244.438965 144.259018 243.58905 C 142.870239 242.739105 140.759369 241.348587 139.568207 240.498993 C 138.377045 239.649414 136.23175 237.977875 134.800873 236.784485 C 133.37001 235.591064 131.014481 233.42984 129.566376 231.98172 C 128.118256 230.5336 125.957031 228.178085 124.763611 226.747223 C 123.570221 225.316345 121.898689 223.171051 121.049103 221.979889 C 120.199509 220.788727 118.80899 218.677856 117.959045 217.289063 C 117.109123 215.900299 115.879692 213.75766 115.227013 212.527679 C 114.574326 211.297699 113.465561 208.947525 112.7631 207.305084 C 112.060638 205.662659 111.05407 203.037399 110.526291 201.471161 C 109.99852 199.904968 109.205856 197.223404 108.764824 195.512115 C 108.323814 193.800812 107.748489 191.138 107.486328 189.594711 C 107.22419 188.051437 106.879913 185.43399 106.721291 183.778198 C 106.552017 182.011429 106.432869 178.704575 106.432869 175.774048 C 106.432869 172.843506 106.552017 169.536652 106.721291 167.769897 C 106.879913 166.114105 107.22419 163.496658 107.486328 161.953384 C 107.748489 160.41008 108.323814 157.747269 108.764824 156.03598 C 109.205856 154.324692 109.99852 151.643127 110.526291 150.07692 C 111.05407 148.510696 112.060638 145.885437 112.7631 144.243011 C 113.465561 142.600571 114.574326 140.250381 115.227013 139.020416 C 115.879692 137.790436 117.109123 135.647797 117.959045 134.259018 C 118.80899 132.870239 120.199509 130.759369 121.049103 129.568207 C 121.898689 128.377045 123.570221 126.23175 124.763611 124.800873 C 125.957031 123.37001 128.118256 121.014481 129.566376 119.566376 C 131.014481 118.118256 133.37001 115.957031 134.800873 114.763611 C 136.23175 113.570221 138.377045 111.898697 139.568207 111.049103 C 140.759369 110.199509 142.870239 108.80899 144.259018 107.959045 C 145.647812 107.109116 147.790436 105.8797 149.020416 105.227005 C 150.250381 104.574326 152.600571 103.465561 154.243011 102.763092 C 155.885437 102.060638 158.510696 101.054062 160.076935 100.526291 C 161.643127 99.99852 164.324692 99.205856 166.03598 98.764816 C 167.747284 98.323807 170.410095 97.748489 171.953384 97.486328 C 173.496658 97.224182 176.114105 96.879913 177.769897 96.721283 C 179.536667 96.552017 182.843521 96.432877 185.774048 96.432877 C 188.70459 96.432877 192.011444 96.552017 193.778198 96.721283 C 195.43399 96.879913 198.051437 97.224182 199.594711 97.486328 C 201.138016 97.748489 203.800827 98.323807 205.512115 98.764816 C 207.223404 99.205856 209.904968 99.99852 211.471176 100.526291 C 213.037399 101.054062 215.662659 102.060638 217.305084 102.763092 C 218.947525 103.465561 221.297714 104.574326 222.527679 105.227005 C 223.75766 105.8797 225.900299 107.109116 227.289078 107.959045 C 228.677856 108.80899 230.778076 110.191956 231.956207 111.032318 C 233.134338 111.872696 235.029785 113.3358 236.168289 114.283691 C 237.306808 115.231583 238.998245 116.700302 239.927078 117.547516 C 240.855881 118.394699 241.805817 119.112366 242.038025 119.142273 C 242.365952 119.184525 244.216934 117.438431 250.329025 111.321167 C 255.832718 105.812805 258.197876 103.319382 258.197876 103.025528 C 258.197876 102.751923 257.69165 102.139236 256.746338 101.268677 C 255.947998 100.533478 254.288452 99.059296 253.058472 97.992691 C 251.828506 96.926086 249.859558 95.301712 248.683044 94.383026 C 247.506531 93.464325 244.793777 91.544662 242.654678 90.117081 C 240.515579 88.689499 237.452774 86.797287 235.84845 85.912125 C 234.244125 85.026947 231.618866 83.673569 230.014526 82.904587 C 228.410202 82.13559 225.550171 80.888062 223.658905 80.132233 C 221.767639 79.376434 218.836105 78.313812 217.144379 77.770874 C 215.452637 77.227905 212.668381 76.431335 210.957092 76.000732 C 209.245804 75.570099 206.192856 74.914215 204.17276 74.543182 C 202.152649 74.17218 198.739822 73.673187 196.588669 73.434326 C 193.276123 73.066467 191.620926 73 185.774048 73 C 179.927185 73 178.271988 73.066467 174.959427 73.434326 C 172.808273 73.673187 169.395447 74.17218 167.375351 74.543182 C 165.35524 74.914215 162.302292 75.570099 160.591003 76.000732 C 158.879715 76.431335 156.095459 77.227905 154.403732 77.770874 C 152.71199 78.313812 149.780472 79.376434 147.889191 80.132233 C 145.997925 80.888062 143.137894 82.13559 141.533569 82.904587 C 139.929245 83.673569 137.303986 85.026947 135.699661 85.912125 C 134.095322 86.797287 131.032532 88.689621 128.893433 90.11734 C 126.754326 91.545029 123.963448 93.525528 122.691452 94.518433 C 121.419464 95.511322 119.275497 97.284698 117.927094 98.459259 C 116.578667 99.633835 114.377304 101.692947 113.035118 103.03511 C 111.692955 104.377304 109.633835 106.578659 108.459267 107.927094 C 107.284698 109.275497 105.51133 111.419464 104.518433 112.691452 C 103.525528 113.96344 101.545029 116.754318 100.11734 118.893417 C 98.689621 121.032516 96.797279 124.095322 95.912132 125.699646 C 95.026955 127.30397 93.673569 129.92923 92.904594 131.533554 C 92.135605 133.137894 90.888039 135.997925 90.13224 137.889191 C 89.376427 139.780457 88.313805 142.71199 87.770851 144.403717 C 87.227898 146.095459 86.431335 148.879715 86.000725 150.591003 C 85.570107 152.302292 84.914215 155.35524 84.543213 157.375336 C 84.172195 159.395447 83.673203 162.808273 83.434326 164.959427 C 83.066483 168.271973 83 169.92717 83 175.774048 C 83 181.620911 83.066483 183.276108 83.434326 186.588669 C 83.673203 188.739822 84.172195 192.152649 84.543213 194.172745 C 84.914215 196.192856 85.570107 199.245804 86.000725 200.957092 C 86.431335 202.668381 87.227898 205.452637 87.770851 207.144363 C 88.313805 208.836105 89.376427 211.767639 90.13224 213.658905 C 90.888039 215.550171 92.135605 218.410217 92.904594 220.014526 C 93.673569 221.618866 95.026955 224.24411 95.912132 225.84845 C 96.797279 227.452759 98.689621 230.515564 100.11734 232.654663 C 101.545029 234.793762 103.525528 237.584656 104.518433 238.856644 C 105.51133 240.128632 107.284698 242.272598 108.459267 243.621002 C 109.633835 244.969421 111.692955 247.170792 113.035118 248.51297 C 114.377304 249.855133 116.578667 251.914261 117.927094 253.088837 C 119.275497 254.263397 121.419464 256.036774 122.691452 257.029663 C 123.963448 258.022583 126.754326 260.003052 128.893433 261.430756 C 131.032532 262.858459 134.095322 264.750824 135.699661 265.635956 C 137.303986 266.521149 139.929245 267.874512 141.533569 268.643494 C 143.137894 269.412476 145.997925 270.660065 147.889191 271.415863 C 149.780472 272.171661 152.71199 273.234283 154.403732 273.777222 C 156.095459 274.32019 158.870148 275.113739 160.569687 275.54068 C 162.269257 275.96759 165.069534 276.581329 166.792526 276.904449 C 168.515533 277.227631 171.281647 277.664948 172.939453 277.876251 C 174.59726 278.087616 176.872467 278.34024 177.995499 278.437714 Z"/>
            <path id="ef-logo-l-outer-segment" fill="#3f3f46" fill-rule="evenodd" stroke="none" opacity="0.649211" d="M 179.842911 238.190613 C 180.698547 238.286041 183.805099 238.331024 186.746368 238.290588 C 190.839355 238.234299 192.664459 238.126694 194.524918 237.832001 C 195.861847 237.62027 197.830795 237.258484 198.900345 237.028076 C 199.969894 236.797684 201.588791 236.402344 202.497925 236.149567 C 203.407059 235.896759 205.039856 235.380417 206.126434 235.002121 C 207.212997 234.623825 209.101501 233.890717 210.32309 233.373047 C 211.544693 232.855331 213.674713 231.838623 215.056519 231.113708 C 216.438309 230.388763 218.793991 228.979706 220.291351 227.982483 C 221.788712 226.985245 223.932678 225.426208 225.05571 224.517944 C 226.178741 223.609665 227.663254 222.348694 228.354645 221.71579 C 229.169952 220.969391 229.611725 220.414978 229.611725 220.138062 C 229.611725 219.836731 227.697128 217.79451 223.104111 213.196625 C 218.229782 208.317093 216.495911 206.69577 216.195633 206.736542 C 215.975128 206.76651 215.172836 207.349319 214.412811 208.031723 C 213.652756 208.714127 212.352707 209.780334 211.523773 210.401093 C 210.694855 211.02182 208.915634 212.18634 207.569931 212.988937 C 206.224213 213.791504 204.204346 214.838837 203.081314 215.316315 C 201.958282 215.793793 200.033081 216.501892 198.803116 216.889832 C 197.573135 217.277802 195.735443 217.763504 194.719376 217.969177 C 193.703308 218.174835 192.130432 218.434799 191.224136 218.546814 C 190.317841 218.658875 187.865295 218.750519 185.774048 218.750519 C 183.6828 218.750519 181.23027 218.658875 180.323959 218.546814 C 179.417664 218.434799 177.844788 218.174835 176.82872 217.969177 C 175.812653 217.763504 173.97496 217.277802 172.74498 216.889832 C 171.515015 216.501892 169.589813 215.793793 168.466782 215.316315 C 167.34375 214.838837 165.321198 213.789917 163.972229 212.985397 C 162.623276 212.180862 160.741837 210.944626 159.79126 210.238174 C 158.840714 209.531723 156.832535 207.723297 155.328659 206.219437 C 153.824799 204.715561 152.016373 202.707382 151.309921 201.756836 C 150.60347 200.806259 149.367233 198.92482 148.562698 197.575867 C 147.758179 196.226898 146.709259 194.204346 146.231796 193.081314 C 145.754288 191.958282 145.046204 190.033081 144.658249 188.803116 C 144.270294 187.573135 143.784592 185.735443 143.578918 184.719376 C 143.37326 183.703308 143.113297 182.130432 143.001282 181.224136 C 142.889236 180.317825 142.797577 177.865295 142.797577 175.774048 C 142.797577 173.6828 142.889236 171.230255 143.001282 170.323959 C 143.113297 169.417664 143.37326 167.844788 143.578918 166.82872 C 143.784592 165.812653 144.270294 163.97496 144.658249 162.74498 C 145.046204 161.515015 145.754288 159.589813 146.231796 158.466782 C 146.709259 157.34375 147.758179 155.321198 148.562698 153.972229 C 149.367233 152.623276 150.60347 150.741837 151.309921 149.79126 C 152.016373 148.840714 153.824799 146.83252 155.328659 145.328659 C 156.832535 143.824799 158.840714 142.016373 159.79126 141.309921 C 160.741837 140.60347 162.623276 139.367233 163.972229 138.562698 C 165.321198 137.758179 167.34375 136.709259 168.466782 136.231781 C 169.589813 135.754288 171.515015 135.046204 172.74498 134.658249 C 173.97496 134.270294 175.812653 133.784592 176.82872 133.578918 C 177.844788 133.373245 179.417664 133.113297 180.323959 133.001266 C 181.23027 132.889236 183.6828 132.797577 185.774048 132.797577 C 187.865295 132.797577 190.317841 132.889236 191.224136 133.001266 C 192.130432 133.113297 193.703308 133.373245 194.719376 133.578918 C 195.735443 133.784592 197.573135 134.270294 198.803116 134.658249 C 200.033081 135.046204 201.958282 135.754288 203.081314 136.231781 C 204.204346 136.709259 206.224213 137.756592 207.569931 138.559158 C 208.915634 139.36174 210.708145 140.536224 211.553329 141.169128 C 212.398499 141.802032 213.740326 142.908875 214.535187 143.628769 C 215.330032 144.348648 216.143524 144.937668 216.342926 144.937668 C 216.559799 144.937668 219.320999 142.323013 223.214172 138.431152 C 227.857635 133.789246 229.722839 131.800858 229.722839 131.492584 C 229.722839 131.189743 229.126724 130.529434 227.729584 129.284714 C 226.633301 128.308029 224.773743 126.784271 223.597229 125.898575 C 222.420715 125.012909 220.567444 123.711288 219.478867 123.006104 C 218.390244 122.300903 216.384613 121.137207 215.021866 120.42012 C 213.659149 119.703033 211.533081 118.687851 210.297318 118.164139 C 209.061554 117.640442 207.041809 116.863525 205.80896 116.437683 C 204.576141 116.01181 202.561111 115.410339 201.331146 115.101044 C 200.101166 114.791733 198.167877 114.362534 197.034943 114.147217 C 195.902023 113.931915 193.976852 113.642853 192.756744 113.504868 C 191.536667 113.366882 188.39444 113.253983 185.774048 113.253983 C 183.153656 113.253983 180.011429 113.366882 178.791351 113.504868 C 177.571259 113.642853 175.646088 113.931915 174.513153 114.147217 C 173.380219 114.362534 171.44693 114.791733 170.216949 115.101044 C 168.986984 115.410339 166.971954 116.01181 165.739136 116.437683 C 164.506302 116.863525 162.486557 117.640442 161.250778 118.164139 C 160.015015 118.687851 157.873383 119.709473 156.491577 120.434387 C 155.109802 121.159332 152.754105 122.56839 151.256744 123.565613 C 149.759384 124.562851 147.571671 126.147171 146.395157 127.086349 C 145.218643 128.025497 143.027084 130.022903 141.524994 131.524994 C 140.022903 133.027084 138.025497 135.218643 137.086349 136.395157 C 136.147171 137.571671 134.562851 139.759384 133.565613 141.256744 C 132.56839 142.754105 131.159332 145.109787 130.434387 146.491577 C 129.709473 147.873383 128.687851 150.015015 128.164139 151.250778 C 127.64045 152.486542 126.863518 154.506287 126.437683 155.739136 C 126.011818 156.971954 125.410339 158.986984 125.101051 160.216949 C 124.79174 161.44693 124.362534 163.380219 124.147224 164.513153 C 123.931923 165.646072 123.64286 167.571243 123.504868 168.791351 C 123.366882 170.011429 123.253983 173.153656 123.253983 175.774048 C 123.253983 178.39444 123.366882 181.536667 123.504868 182.756744 C 123.64286 183.976837 123.931923 185.902008 124.147224 187.034943 C 124.362534 188.167877 124.79174 190.101166 125.101051 191.331146 C 125.410339 192.561111 126.011818 194.576126 126.437683 195.80896 C 126.863518 197.041794 127.64045 199.061539 128.164139 200.297318 C 128.687851 201.533081 129.709473 203.674713 130.434387 205.056519 C 131.159332 206.438293 132.56839 208.793991 133.565613 210.291351 C 134.562851 211.788712 136.147171 213.976425 137.086349 215.152939 C 138.025497 216.329453 140.022903 218.521027 141.524994 220.023102 C 143.027084 221.525177 145.218643 223.522583 146.395157 224.461746 C 147.571671 225.400925 149.759384 226.985245 151.256744 227.982483 C 152.754105 228.979706 155.109802 230.388763 156.491577 231.113708 C 157.873383 231.838623 160.003418 232.855331 161.225006 233.373047 C 162.446594 233.890717 164.335098 234.623825 165.421661 235.002121 C 166.50824 235.380417 168.141052 235.896759 169.050171 236.149567 C 169.959305 236.402344 171.560181 236.792557 172.607681 237.016693 C 173.655197 237.240829 175.361633 237.557617 176.399719 237.720673 C 177.437851 237.883698 178.987259 238.095184 179.842911 238.190613 Z"/>
            <path id="ef-logo-circle" fill="#f26522" fill-rule="evenodd" stroke="none" d="M 206.776123 175.871277 C 206.776123 164.325851 197.416702 154.966431 185.871277 154.966431 C 174.325851 154.966431 164.966431 164.325851 164.966431 175.871277 C 164.966431 187.416702 174.325851 196.776123 185.871277 196.776123 C 197.416702 196.776123 206.776123 187.416702 206.776123 175.871277 Z"/>
        </g>
    </g>
</svg>
